/* XPM */

static const char *dozer_xpm[] =
{
/* width height num_colors chars_per_pixel */
	"57 37 5 1",
	".	c None",
	"B	c #000000",
	"Y	c #FFFF00",
	"$	c .FFA600",
	"G	c .147F2F",
	".........................................................",
	".........BBBBBBBBBBBBBBBBBBBBB...........................",
	".........BBBBBBBBBBBBBBBBBBBBB.......BBB.................",
	"............BB......YY....BB.........BBB.................",
	"............BB.....YYYY...BB.........BBB.................",
	"............BB....YYYYYY..BB.........BBB.................",
	"............BB.....$$G$...BB.........BBB.................",
	"............BB.....$$$$...BB.........BBB.................",
	"............BB......$$....BB.........BBB.................",
	"............BB.....YYYY..BBBBBBBBBBBBBBBBBB..............",
	"............BBBB..YYYYYYBBBBBBBBBBBBBBBBBBBB.............",
	"............BBBBB.YYYYYBBBYYYYYYYYYYYYYYYYBB.............",
	"............BBYBB.YYYYYBBYYYYYYYYYYYYYYYYYBBB............",
	"............BBYYBBBBBBBBYYYYYYYYYYYYYYYYYYBBB............",
	"............BBYYBBBBBBBBYYYYYYYYYYYYYYYYYYBBB............",
	".....BBBBBBBBBYYYYYYYYYYYYYYYYYYYYYYYYYYYYBBB............",
	".....BBBBBBBBBYYYYYYYYYYYYYYYYYYYYYYYYYYYYBBB............",
	".......BBYYYYYYYYYYYYYYYYYYYYYYYYYYYYYYYYYBBB............",
	".......BBYYYYYYYYYYYYYYYYYYYYYYYYYYYYYYYYYBBB........BB..",
	".......BBYYYYYYYYYYYYYYYYYYYYYYYYYYYYYYYBBBB.........BB..",
	".......BBYYYYYYYYYYYYYYYYYYYYYYYYYYYYYYBBBB..........BB..",
	".....BBBBBBBBBBBBBBBBBBBBBBBBBBBBBBBBBBBB............BB..",
	"....BBBBBBBBBBBBBBBBBBBBBBBBBBBBBBBBBBBBB...........BBB..",
	"...BBBYYYYYYYYYYYYYYYYYYYYYYYYYYYYYYYYYBBB..........BBB..",
	"..BBBYYYYBBYYYYYYYYYYYYYYYYYYYYYYYYYYYYYBBB........BBBB..",
	".BBBYYYYBBBBYYYYYYYYYYYYYYYYYYYYYYYYYYYYYBB.......BBBBB..",
	".BBYYYYBBBBBBYYYYYYYYYYYYYYYYYYYYYYYYYYYYBBB.....BBBBBB..",
	".BBYYYBBBBBBBBYYYYBBBBBBBBBBBBBBBBBBBBBBBBBBBBBBBBBBBBB..",
	".BBBYYYBBBBBBYYYYYBBBBBBBBBBBBBBBBBBBBBBBBBBBBBBBBBBBBB..",
	"..BBBYYYBBBBYYYYYYBBBBBBBBBBBBBBBBBBBBBBBBBBBBBBBBBBBBB..",
	"..BBBYYYYBBYYYYYYYYYYYYYYYYYYYYYYYYYYYYYYBBB......BBBBB..",
	"...BBBYYYYYYYYYYYYYYYYYYYYYYYYYYYYYYYYYYBBB........BBBB..",
	"...BBBYYYYYYYYYYYYYYYYYYYYYYYYYYYYYYYYYBBBB.........BBB..",
	"....BBBBBBBBBBBBBBBBBBBBBBBBBBBBBBBBBBBBB............BBB.",
	"......BBBBBBBBBBBBBBBBBBBBBBBBBBBBBBBBBB.............BBB.",
	"......................................................BB.",
	"........................................................."
};

static const char *fireman_xpm[] =
{
	"37 48 5 1",
	".	c None",
	"Y	c #FFFF00",
	"#	c #FFA600",
	"G	c #147F2F",
	"B	c #41423E",
	".....................................",
	"............YYYYYYYY.................",
	"............YYYYYYYYY................",
	".............YYYYYYYY................",
	".............YYYYYYYYY...............",
	".............##YYYYYYY...............",
	".............###YYYYYY...............",
	".............#####YYYY...............",
	"...........Y.####G##YY...............",
	"..........YY#######.YY...............",
	".........YYYY#####........BB.........",
	"........YYYYYY##..........BBB........",
	".......YYYYYYYYY..........BBBB.......",
	"......YYYYYYYYYYY..........BBBB......",
	"......YYYYYYYYYYYYY........BBBBB.....",
	".....YYYYYYYYYYYYYYY........BBBBB....",
	"....YYYYYYYYYYYYYYYY........BBBBBB...",
	"....YYYYYYYYYYYYYYYY.......BBBBBBBB..",
	"...YYYYYYYYYYY..YYYYY.....BBBB.BBBBB.",
	"...YYYYYYYYYYY...YYYY.....BBB...BBBB.",
	"..YYYYYYYYYYYYY...YYYY...BBB......BB.",
	"..YYYYYYYYYYYYYY..YYYY..BBB........B.",
	".GYYYYYYYYYYYYYYY..YY###BB...........",
	".GGGGGGGGGGYYYYYYYYY####BB...........",
	".GGGGGGGGGGYYYYYYYYY#####............",
	".GGGGGGGGGG..YYYYYYYB####............",
	".GGGGGGGGGGG........BB###............",
	"..GGGGGGGGGG......BBBB...............",
	"...GGGGGGGGG.....BBBB................",
	"...GGGGGGGGGG....BBB.................",
	"...GGGGGGGGGG....BB..................",
	"....GGGGGGGGGG.......................",
	".....GGGGBGGGG.......................",
	".....GGGGBGGGG.......................",
	".....GGGGBGGG........................",
	".....GGGGBGGG........................",
	".....GGGGBGGG........................",
	"....GGGGG.GGG........................",
	"....GGGGG.########...................",
	"....GGGGG.#########..................",
	"....GGGG..#########..................",
	"...GGGGG...#######...................",
	"...GGGGG.............................",
	"...GGGG..............................",
	"..#########..........................",
	"..##########.........................",
	"..##########.........................",
	"....#######.........................."
};

static const char *mtnfire_xpm[] =
{
	"106 90 19 1",
	".	c None",
	"#	c #E5E6E3",
	"$	c #BCBEBA",
	"%	c #ADAEAA",
	"&	c #8A8C88",
	"*	c #EFF0ED",
	"=	c #686A66",
	"-	c #50524D",
	";	c #5A5C58",
	">	c #747571",
	",	c #9C9D99",
	"'	c #D6D7D4",
	")	c #82847F",
	"!	c #474943",
	"~	c #393B36",
	"{	c #FF9E0C",
	"]	c #FFFF09",
	"^	c #39A009",
	"/	c #FF0009",
	"..........................................................................................................",
	"............................................................#$%&&%#.......................................",
	".........................................................*$%=-;==>,'......................................",
	".........................................................%>;&$#.*%==#.....................................",
	".........................................................==.......$>).....................................",
	".........................................................=.........'=.....................................",
	"........................................................=,..........$;,...................................",
	"............................................$$,&),%%$..=)............$-'..................................",
	"...........................................%;-;=;>;=>,#;%*............,=#.................................",
	"..........................................'))%'#*.*'%=;!'#............#=,...'$$$..................&%'.....",
	"..........................................$~$....*..*');%##............)-..$=;=;-=,.......$,%##&;;;-=%*...",
	"..........................................&>..........$>;'.............&=.%=,'*#',>>$#'#,-=;-;=;&'#,=;,...",
	"..........................................=&*........*.'>>'............*'%=&#.##..,);,>!-;%',;=%#...$>=>'.",
	"........................................*#=)............$='.............$-&........'--;)%'#.#$'......'%;%.",
	"........................................,,-;...........#.$%.............$%*..*......$=>**.............'!,*",
	".......................................%;!=>#............*.........................*#$'...............%!$.",
	"......................................,!>%$%*#......................................#'...........##.#.$;$.",
	".....................................';=$..*.*...................................................****#)!%*",
	".....................................,-'...........................................................*.';)#.",
	".....................................>=.**......................................................*...')-$..",
	".....................................=,.*.....................................................*,,'.#)=%...",
	".....................................;%...#....................................................);>==;.....",
	".....................................=,......................................................*.)=&>)......",
	".....................................=>.#.....................................................#=,*........",
	"......................................;....................................................)'',;$.........",
	"......................................=%*#...............................................,);>-;...........",
	"......................................=;'.*.....................................#....##.')................",
	".......................................=>'.....................................%)$.#.#..,;................",
	".......................................$;;$#...................................'->'.**.$=>................",
	"........................................$=-%...................................*;!>''$$>=$................",
	"........................................,-;>....................................);==>;=>$.................",
	"........................................;>,#...................................*=&#%......................",
	"........................................=$.....................................$-%........................",
	"........................................=$....................................#>-.........................",
	".........................................,.....................................;=.........................",
	"...............................................*...................,-.......*..==.........................",
	"..........................................,......*.................'-&........';).........................",
	"...........................................$...*...................#=).......')>..........................",
	"...........................................!$''%....................);,.....')-...........................",
	"...........................................)->;>..................**&;-=$#$&;=............................",
	"............................................-!;..................*..>;&>==-=,'............................",
	"............................................;,$...............#'..#'=)#',,................................",
	"............................................->'...............=)'#$>......................................",
	".............................................;$..............*,-)%==......................................",
	".............................................>>...............#)--=.......................................",
	".............................................)~..........'*.*..>)$'.......................................",
	".............................................-=;$.......#'...*#=,'........................................",
	".............................................-''........,&.*.)-;'.........................................",
	".............................................-.........*)-'..%>>#.........................................",
	".............................................-$.......*.$;&#.$-...........................................",
	".............................................==*......,#$;-),)=...........................................",
	".............................................%=$.....'===;>;=.............................................",
	".............................................$-).....*,!;,'...............................................",
	"............................................$>;)..*...#=='................................................",
	"............................................)!$...*....=).................................................",
	"..........................................*$=;'{{{#.$%%!%.................................................",
	".......................................{]]]]]]{{{{&$'=!)#.........^.......................................",
	"......................................{{{]]]]]{{']]].)-'.........^^^......................................",
	".............................,^^'....]]]]]]]{{{*]]]{.))........^^^^^^.....................................",
	"............................^^^^^..#////]]]{{{{]]]{{]>........^^^^^^^^....................................",
	"..........................&^^^^^^/////////]]]]]]{{{*].......^^^^^^^^^^....................................",
	"..........................=^^^^^^^^^^/////{//]]]{{{]]....=^^^^^^^^^^^^^^^.................................",
	"........................^^^^^^^^^^^^^^^//////]]{{]]]...^^^^^^^^^^^^^^^^^^^^^^^............................",
	"....................^^^^^^^^^^^^^^^^^^^^/////]]]]].....^^^^^^^^^^^^^^^^^^^^^^^^...........................",
	"....................^^^^^^^^^^^^^^^^^^^^^//////]].....^^^^^^^^^^^^^^^^^^^^^^^^^^..........................",
	"..................^^^^^^^^^^^^^^^^^^^^^^^^^////......^^^^^^^^^^^^^^^^^^^^^^^^^^^^^........................",
	"................^^^^^^^^^^^^^^^^^^^^^^^^^^^^////..^^^^^^^^^^^^^^^^^^^^^^^^^^^^^^^^........................",
	"..............^^^^^^^^^^^^^^^^^^^^^^^^^^^^^^^^//^^^^^^^^^^^^^^^^^^^^^^^^^^^^^^^^^^........................",
	"............$^^^^^^^^^^^^^^^^^^^^^^^^^^^^^^^^^^^^^^^^^^^^^^^^^^^^^^^^^^^^^^^^^^^^^........................",
	"...........$^^^^^^^^^^^^^^^^^^^^^^^^^^^^^^^^^^^^^^^^^......^^^^^^^^^^^^^^^^^^^^^^.........................",
	"..........*^^^^^^^^^^^^^^^^^^^^^^^^^^^^^^^^^^^^^^^^^^......^^^^^^^^^^^^^^^^^^^^^^.........................",
	".........*^^^^^^^^^^^^^^^^^^^^^^^^^^^^^^^^^^^^^^^^^^^^^......^^^^^^^^^^^^.................................",
	"........^^^^^^^^^^^^^^^^^^^^^^^^^^^^^^^^^^^^^^^^^^^^^^^^^......^^^^^^^^^^^^...............................",
	"........^^^^^^^^^^^^^^^^^^^^^^^^^^^^^^^^^^^^^^^^^^^^^^^^^^^.....^^^^^^^^^^^^^^^...........................",
	"......'^^^^^^^^^^^^^^^^^^^^^^^^^^^^^^^^^^^^^^^^^^^^^^^^^^^^.........^^^^^^^..^............................",
	".....^^^^^^^^^^^^^^^^^^^^^^^^^^^^^^^^^^^^^^^^^^^^^^^^^^^^^^^^.........^...................................",
	"....^^^^^^^^^^^^^^^^^^^^^^^^^^^^^^^^^^^^^^^^^^^^^^^^^^^^^^^^^^............................................",
	".^^^^^^^^^^^^^^^^^^^^^^^^^^^^^^^^^^^^^^^^^^^^^^^^^^^^^^^^^^^^^^^..........................................",
	".^^^^^^^^^^^^^^^^^.^^^^^^^^^^^^^^^^^^^^^^^^^^^^^^^^^^^^^^^^^^^^^^.........................................",
	".^^^^^^^...........*^^^^^^^^^^^^^^^^^^^^^^^^^^^^^^^^^^^^^^^^^^^^^^........................................",
	"..^^^^^^^..........^^^^^^^^^^^^^^^^^^^^^^^^^^^^^^^^^^^^^^^^^^^^^^^........................................",
	"..................^^^^^^^^^^^^^^^^^^^^^^^^^^^^^^^^^^^^^^^^^^^^^^^^^.......................................",
	".................^^^^^^^^^^^^^^^^^^^^^^^^^^^^^^^^^^^^^^^^^^^^^^^^^^^......................................",
	"................^^^^^^^^^^^^^^^^^^^^^^^^^^^^^^^^^^^^^^^^^^^^^^^^^^^^......................................",
	"................^^^^^^^^^^^^^^^^^^^^^^^^#))^^^^^^^^^^^^^^^^^^^^^^^........................................",
	"...............^^^^^^^^^^^^^^^^^^^^^^^..^^^,-^^^^^^^^^^^^^^^^^^^^.........................................",
	"...........^^^^^^.^^^^^^^^^^^^^^^^^..........^^^.$#)^^^^^^^^^^^...........................................",
	"...........^^^.^^^^^^^&...^^^^^^^............$^^#*.*^^^^^^^^^^............................................",
	"..........................^^^^^^^.............^#.....^^^^^^^^^^...........................................",
	".........................................................................................................."
};

static const char *torchtree_xpm[] =
{
	"28 68 10 1",
	".	c None",
	"@	c #FF0000",
	"#	c #FEFF00",
	"$	c #FFBF00",
	"%	c #F5F6F2",
	"&	c #00FF7F",
	"*	c #00FF6E",
	"=	c #9D9F9B",
	"-	c #EFF0EC",
	";	c #75460C",
	"............................",
	"......................@.....",
	"....................@###$...",
	"....................@#$$$...",
	"....................##$$#@..",
	"................@...#$$$#@..",
	"...............##@%##$$##@..",
	"..............##@#@#$$$#@...",
	".............@#@$###$$$#@...",
	"............@##$$$@$$$$@@...",
	"............%#$$$$$$$$##%...",
	"............##$$$$$$$$#%....",
	"............$$$$$$#$$$#@....",
	"..........&&$$$$$$$$$##.....",
	".........&&&$$$$#$$$$###....",
	".........&&&$$$$$$$#$$##@...",
	".........&&&&$$$$$$$$$$#%...",
	"........&&&&&&$$$#$$$$$#....",
	"........&&&&&&$$$$$$$$$#@...",
	".......&&&&&&&&$$$$$$$$@@...",
	"......&&&&&&&&$@$#$$$#$@@...",
	".....&&&&&&&&&&$@$$$$$##@...",
	"....&&..&&&&&&&&$$$$$$#.....",
	"........&&&&&&&&&$$$$$......",
	".......&&&&&&&$$&@$$$$......",
	"......&&&&&&&&$$$$$$$$......",
	"......&&&&&&&&&$$@$#$$#.....",
	".....&&&&&&&&&&&$$@$$$#.....",
	"....&&&&&&&&&&&&&$$$$$#.....",
	"...&&&&&&&&&&&&&&&$$###.....",
	"..&&&&&&&&&&&&&$$$@$#@@.....",
	"..&&...&&&&&&&&&$$$$$@@.....",
	".......&&&&&&&&$$$$$$#@.....",
	".....&&&&&&&&&&&&$#$##......",
	"....&&&&&&&&&&&&&&$$@@......",
	"....&&&&&&&&&&&&&&###.......",
	"...&&..&&&&&&&&&&&&&#.......",
	"...&...&&&&&&&&&&$&&#.......",
	"......&&&&&&&&&$&$$##.......",
	".....&&&&&&&&&&$@$##@.......",
	"...&&&&&&&&&&&&$$$#@........",
	"...&&&&&&&&&&&&&&&#%........",
	"..%&&&*&&&&&&&&&&&=.........",
	"..&&..**&&&&&&&&&&&.........",
	"..&...*&&&&&&&&&&&&&........",
	"....&&&&&&&&&&&&$&&&........",
	"...&&&&&&&&&&&&&##&&&.......",
	"..&&&&&&&&&&&&&&&-.&&.......",
	"..&&&.&&&&&&&&&&&&..........",
	"..&&..&&&&&&&&&&&&&.........",
	".&&&..&&&&&&&&&...&&........",
	".....&&&&&&&&&&&...&........",
	"...&&&&&&&&&&&&&............",
	"..%&&&&&&&&&&&&&&&&&........",
	"..&&&&&..;;;;..&&&&&........",
	"..&&&&...;;;;..&&&&&........",
	".&&&&....;;;;.....&&&.......",
	".........;;;;...............",
	".........;;;;...............",
	".........;;;;...............",
	".........;;;;...............",
	".........;;;;...............",
	".........;;;;...............",
	".........;;;;...............",
	".........;;;;...............",
	".........;;;;...............",
	".........;;;;...............",
	"............................"
};

/* End of bpcomposehaulingchart.xpm */


