/* XPM */
static const char *logo036_xpm[] = {
	"36 36 257 2",
	"  	c None",
	". 	c #44463C",
	"+ 	c #9CA274",
	"@ 	c #9C6A3C",
	"# 	c #647254",
	"$ 	c #CCCEB4",
	"% 	c #9C865C",
	"& 	c #744E34",
	"* 	c #848A64",
	"= 	c #CCA26C",
	"- 	c #C48654",
	"; 	c #E4E6CC",
	"> 	c #545E3C",
	", 	c #847254",
	"' 	c #B4B67C",
	") 	c #E4D6BC",
	"! 	c #9C966C",
	"~ 	c #746244",
	"{ 	c #CCBA94",
	"] 	c #5C4E3C",
	"^ 	c #7C824C",
	"/ 	c #C4966C",
	"( 	c #B4A27C",
	"_ 	c #94965C",
	": 	c #5C6A54",
	"< 	c #847E54",
	"[ 	c #B4764C",
	"} 	c #74724C",
	"| 	c #F4F2CC",
	"1 	c #8C6644",
	"2 	c #CCCED4",
	"3 	c #B4865C",
	"4 	c #848A74",
	"5 	c #E4A264",
	"6 	c #645E3C",
	"7 	c #ACAE74",
	"8 	c #9C7A54",
	"9 	c #E4E6DC",
	"0 	c #DC9A64",
	"a 	c #947E5C",
	"b 	c #4C523C",
	"c 	c #B4B6A4",
	"d 	c #E4DEC4",
	"e 	c #B4966C",
	"f 	c #746A44",
	"g 	c #9C8E5C",
	"h 	c #5C563C",
	"i 	c #D48A5C",
	"j 	c #E4B68C",
	"k 	c #D49664",
	"l 	c #848654",
	"m 	c #747A5C",
	"n 	c #ACA294",
	"o 	c #948A54",
	"p 	c #B4AE94",
	"q 	c #D4D6D4",
	"r 	c #64664C",
	"s 	c #BCBEA4",
	"t 	c #9C764C",
	"u 	c #6C7A64",
	"v 	c #DCCEB4",
	"w 	c #745A34",
	"x 	c #DCA274",
	"y 	c #C48E54",
	"z 	c #F4E6C4",
	"A 	c #94724C",
	"B 	c #AC9674",
	"C 	c #CCC6B4",
	"D 	c #74725C",
	"E 	c #948A74",
	"F 	c #E4AE84",
	"G 	c #4C5A44",
	"H 	c #E4DED4",
	"I 	c #846A44",
	"J 	c #ACA27C",
	"K 	c #647264",
	"L 	c #AC865C",
	"M 	c #5C664C",
	"N 	c #847A5C",
	"O 	c #9C9E7C",
	"P 	c #6C4E2C",
	"Q 	c #6C7E64",
	"R 	c #C49E74",
	"S 	c #8C966C",
	"T 	c #6C6A54",
	"U 	c #645E4C",
	"V 	c #AC7A54",
	"W 	c #F4EADC",
	"X 	c #DCD6CC",
	"Y 	c #845A34",
	"Z 	c #544E3C",
	"` 	c #A4AA7C",
	" .	c #D4CEAC",
	"..	c #84926C",
	"+.	c #D4AA8C",
	"@.	c #5C5E44",
	"#.	c #E4DADC",
	"$.	c #A4967C",
	"%.	c #846244",
	"&.	c #CCC29C",
	"*.	c #644E2C",
	"=.	c #B4AA84",
	"-.	c #848264",
	";.	c #B47E54",
	">.	c #8C6E44",
	",.	c #B48E64",
	"'.	c #8C9274",
	").	c #A4AE94",
	"!.	c #9C825C",
	"~.	c #54523C",
	"{.	c #C4BA9C",
	"].	c #B49E74",
	"^.	c #7C6A4C",
	"/.	c #AC8E64",
	"(.	c #6C5A44",
	"_.	c #84866C",
	":.	c #AC764C",
	"<.	c #7C5A34",
	"[.	c #7C765C",
	"}.	c #ECE2D4",
	"|.	c #949674",
	"1.	c #DCD6DC",
	"2.	c #444E3C",
	"3.	c #A4A284",
	"4.	c #A48A64",
	"5.	c #8C8A54",
	"6.	c #D4A26C",
	"7.	c #CC8654",
	"8.	c #ECE6C4",
	"9.	c #8C724C",
	"0.	c #C4B694",
	"a.	c #7C7E6C",
	"b.	c #F4AE74",
	"c.	c #9C8E7C",
	"d.	c #C48254",
	"e.	c #C49A7C",
	"f.	c #BCBE84",
	"g.	c #ECEEDC",
	"h.	c #948654",
	"i.	c #D49E6C",
	"j.	c #ACAAA4",
	"k.	c #949264",
	"l.	c #DCAA84",
	"m.	c #F4EECC",
	"n.	c #E4A274",
	"o.	c #ECDABC",
	"p.	c #7C6244",
	"q.	c #FCF6DC",
	"r.	c #E49A64",
	"s.	c #BC9664",
	"t.	c #BCAE94",
	"u.	c #A47244",
	"v.	c #D4C6AC",
	"w.	c #DCD6AC",
	"x.	c #7C8674",
	"y.	c #949274",
	"z.	c #8C8A74",
	"A.	c #645644",
	"B.	c #CC8E64",
	"C.	c #646A54",
	"D.	c #BCBAAC",
	"E.	c #ECBA94",
	"F.	c #C4C2AC",
	"G.	c #6C5E4C",
	"H.	c #BCAE8C",
	"I.	c #8C7E6C",
	"J.	c #4C4A3C",
	"K.	c #9C6E4C",
	"L.	c #9C8A6C",
	"M.	c #C48A64",
	"N.	c #746654",
	"O.	c #7C7E5C",
	"P.	c #8C8254",
	"Q.	c #946A44",
	"R.	c #ACB284",
	"S.	c #DC9E74",
	"T.	c #9C926C",
	"U.	c #D49A74",
	"V.	c #B4AAA4",
	"W.	c #745E44",
	"X.	c #ECB284",
	"Y.	c #846E54",
	"Z.	c #AC8A6C",
	"`.	c #F4EEEC",
	" +	c #64523C",
	".+	c #54564C",
	"++	c #D4A67C",
	"@+	c #8C765C",
	"#+	c #BC9A74",
	"$+	c #6C724C",
	"%+	c #CC9664",
	"&+	c #D4CECC",
	"*+	c #BC8654",
	"=+	c #8C865C",
	"-+	c #7C7A54",
	";+	c #6C6654",
	">+	c #6C725C",
	",+	c #BC8E5C",
	"'+	c #ACAE9C",
	")+	c #8C8664",
	"!+	c #9CA284",
	"~+	c #545E4C",
	"{+	c #E4D6CC",
	"]+	c #9C967C",
	"^+	c #7C724C",
	"/+	c #F4F2DC",
	"(+	c #848A84",
	"_+	c #6C5E3C",
	":+	c #A47A54",
	"<+	c #ECE6DC",
	"[+	c #4C524C",
	"}+	c #ECDEC4",
	"|+	c #746A54",
	"1+	c #5C564C",
	"2+	c #948A64",
	"3+	c #C48E64",
	"4+	c #F4E6D4",
	"5+	c #CCC6C4",
	"6+	c #545A44",
	"7+	c #8C7A5C",
	"8+	c #CC9E74",
	"9+	c #D4CEBC",
	"0+	c #BC7E54",
	"a+	c #8C6E54",
	"b+	c #A4825C",
	"c+	c #C4BAAC",
	"d+	c #7C5A44",
	"e+	c #8C8A64",
	"f+	c #ECE6D4",
	"g+	c #5C5234",
	"h+	c #948264",
	"i+	c #747664",
	"j+	c #E4E2DC",
	"k+	c #6C6E5C",
	"l+	c #646254",
	"m+	c #A49A74",
	"n+	c #CCC6A4",
	"o+	c #949A6C",
	"p+	c #E4A67C",
	"q+	c #646E5C",
	"r+	c #D48E5C",
	"s+	c #BCC2A4",
	"t+	c #DCDACC",
	"u+	c #B4AE84",
	"v+	c #DCDADC",
	"w+	c #CCCEBC",
	"x+	c #9C7654",
	"y+	c #8C9674",
	"z+	c #5C5E4C",
	"A+	c #7C6A54",
	"B+	c #7C7664",
	"C+	c #ECE2DC",
	"D+	c #6C7264",
	"E+	c #000000",
	"F+	c #000000",
	"G+	c #000000",
	"H+	c #000000",
	"r+k 0 5 X.r+y r+S.U.F E.l.5 X.x 5 0 r+0 5 7.i.*+3 #+b.X.l.8+F l.+.+.j j ",
	"0+y 5 7.y %+*+*+y y y x j x p+S.k 5 *+0+d.0 B.Y P x+n.x r+,+k %+#+u.#+U.",
	"u.0+5 0 y 7.- y 0+- *+r+l.k 7.0 r+%+y 7.*+r+>.w a+Y %+r+:.d.%+8+3 _+Y L ",
	"- - y b.5 %+= @ / K.r.:.[ *+d.d.d.0+6.B.6.t Y _+ +d+;.0+d.,+d.++Z.& <.b+",
	"y 5 0 5 b.y 8+<.,.,+L [ [ :.- @ @ Z.y :+L :+^.~ h ~ K.V y V u.Z.t ] %.9.",
	"B.r+x y ;./.b+w >.8 A L x+@ 1 A p.,.7+1 I >.(.A.G.Y Z.t ;.Y <.b+^+ +<., ",
	"u.B.Q.L Q.8 ^.6 ^+Y.p.A a+w %.>.W.7+_+, G.^+|+] b W.g+A t P w % _+A.W.7+",
	"Y !.w ^.W.^+, @.D @.l+^+I G.G.C.G.D r [.r @.Z U : ] |+G., g+w )+~ h @.~ ",
	"w ;+A.;+U ;+C.z+a.l+M k+T 6 N.: @.: M -.;+r @.z+A.;+W.l+A+ +_+E >+z+r D+",
	"G z+l+M ~+: C.M q+M 6 # M k+D+r > > $+k+>+U r k+T U b k+;+U M B+6+@.z+m ",
	"~+r : > G : q+: C.G z+q+l+z+m z+~+M } k+r M 1+6+l+[+: U M Z G N.G ~+U k+",
	"M : : M # u >+C.: 6+~+M C.r M M l+z+u # : > [+T z+6 G [+r 6+M T r 6+: D ",
	"M # u # # Q # M : M [+: k+D+M C.a.O 3.D+q+b .+@.l+z+~+q+T z+z+C.@.k+r M ",
	": # : # x.).x.~+~+K G r C.T r k.{. .R.M q+M b D k+f M i+m z+D z+~.u G 6+",
	"# : # |.s+ .s+G ~+: .+M G r + w.8.8.V.M q+G r m ^+k+N a.M U u D b l+~.[+",
	"r # O.s+8.8.; K G U b U @.'.d g.m.8.'+6 @.6+b T ^.C.@.6 M @.6 h ~.z+T r ",
	"$+$+k.w.| | g.p $+6 $+O.h+v g.W 4+f+0.-+a ^ _+f N ^+6 $+, O., ^.a O.< -+",
	"< =+( 8.z g.4+v N A+h.~ + | <+f+f+m.n+)+o 5.h.^.f ^., O.Y.^ P.2+g S < < ",
	"5.4.&.8.z <+W C+O J m+B w.m.`.<+#.t+F.o ^ , -+^.h.=+5.a ^ ^ h.^+|+f ^ O.",
	"g h.&.z 8.z C+W &.h.P.$.8.q.C+#.v+#.s ^ _.< ^ l -+< -+5.=+h.P.=+5.^ } $+",
	"h.5.R.z }.4+C+<+d '.o !+m.C+`.j+v+j+s h.^ 5.o ^ ^ o 5._ h.5.< _ _ 5.l * ",
	"y+o+R.m.8.X {+<+v+F.O n+W g.C+#.v+#.$ 3.+ + m++ ` 7 7 ' 7 7 f.7 R.` 7 7 ",
	"~+l+u m.f+H #.C+{+2 E w+`.<+<+v+j+X w+|.'.|.S )+..S o+y+o++ ......|.x.l ",
	"b b b v.8.}+#.v+1.&+s+H g.`.j+v+v+#.a.z+.+G .+b G .+G > G G [+G [+b [+.+",
	".+@.A.O m.}+{+1.#.&+f+`.<+j+1.#.q j.[+2.[+2.J.. . [+2.[+. . . [+. 2.. b ",
	"_+W.G.f 8.8.C+{+1.X 4+<+9 v+1.v+t+i+2.[+.+[+[+. [+A.z+a.D [+Z J.Z J.J..+",
	"Y.9.p.^.0.m.f+#.X #.g.g.#.1.9 q 5+U z+l+1+U [+Z ;+]+&+{+I.] ;+U 1+2.] ;+",
	"!.:+Q.9.h+o.z C+X #.<+W 1.v+#.2 5+N.z+W.;+B+m+D.&+j.c.L.E W.A+Y.;+h w A+",
	"3 *+!.b+t ( 8.4+1.j+<+v+q v+q &+2 V.c.h+t.) H.-.G.W.A+I @+A+A P.^+W.;+, ",
	"*+y /.,./.4.{ z C+j+<+q 5+2 2 5+{+<+}.}.v.]+, _+U T a )+a A+9.b+E _+I B+",
	",./.,././.L e v }.#.C+&+&+#.1.9 g.<+d s m+L.E a.N -+h.7+E 5.b+c.T.N [.-.",
	"s./ B ,.4.m+J v {+5+{+v+<+<+W f+j+$ 3.]+! k.5., -+< z.$.! 2+=+2+5.^.D >+",
	"= R s./ { o.}+{+c+z.X 1.q &+C C c $.S |.'.|.)+< [.$+< ^ < ^ l e+k.x.E x.",
	"].s.].J { p &.n c.9+$ 9+s+c+V.y+2+)+z.h.z.h.'.'.|.]+]+3.]+|.)+E y+o+y+|.",
	"H.t.u+]+a.Z J.f '.E '.E c.c.O y+$.O 3.J 3.!+]+k.z.* _.z.)+|.'.|.y+x.4 x.",
	"E )+'.|.'.i+O 3.O 3.]+3.O 3.O $.]+! E 7+-.I._.z.E '.k.y+y.x.-.u D k+K k+"
};
