/* XPM */

static const char *dozer_xpm[] =
{
	"29 19 146 2",
	". 	c None",
	"+ 	c #C9CAC8",
	"@ 	c #828281",
	"# 	c #DDDDDB",
	"$ 	c #C3C4C2",
	"% 	c #747573",
	"& 	c #0C0C0C",
	"* 	c #666665",
	"= 	c #4D4E4D",
	"- 	c #616100",
	"; 	c #393922",
	"> 	c #1B1B1A",
	", 	c #585857",
	"' 	c #D9DAD7",
	") 	c #D2D3D0",
	"! 	c #070707",
	"~ 	c #A7A7A5",
	"{ 	c #DEDFDC",
	"] 	c #D3D6D1",
	"^ 	c #A6A61D",
	"/ 	c #FDFD00",
	"( 	c #D1D104",
	"_ 	c #AAAB92",
	": 	c #3A3A39",
	"< 	c #BFC0BD",
	"[ 	c #D1D1CF",
	"} 	c #000000",
	"| 	c #A4A5A3",
	"1 	c #F6F7F4",
	"2 	c #B89E58",
	"3 	c #D9A708",
	"4 	c #E7C149",
	"5 	c #F3F4EC",
	"6 	c #DDDBD2",
	"7 	c #9E6F17",
	"8 	c #9E8E70",
	"9 	c #CECFCC",
	"0 	c #242424",
	"a 	c #777776",
	"b 	c #9D9E9C",
	"c 	c #A9AAA8",
	"d 	c #1E1E1E",
	"e 	c #B1B2B0",
	"f 	c #838339",
	"g 	c #DDDD00",
	"h 	c #C2C200",
	"i 	c #2D2D11",
	"j 	c #454500",
	"k 	c #5A5A00",
	"l 	c #252504",
	"m 	c #A9A9A7",
	"n 	c #8B8B00",
	"o 	c #48483C",
	"p 	c #54551B",
	"q 	c #ACAC00",
	"r 	c #797900",
	"s 	c #666600",
	"t 	c #F6F600",
	"u 	c #FFFF00",
	"v 	c #5E5E00",
	"w 	c #30302F",
	"x 	c #DBDCD9",
	"y 	c #B2B2B0",
	"z 	c #131313",
	"A 	c #E0E000",
	"B 	c #656500",
	"C 	c #4C4C00",
	"D 	c #D9D900",
	"E 	c #262726",
	"F 	c #1D1D00",
	"G 	c #E8E800",
	"H 	c #8E8F8D",
	"I 	c #6B6B00",
	"J 	c #D7D700",
	"K 	c #474700",
	"L 	c #414140",
	"M 	c #E4E5E2",
	"N 	c #6F706E",
	"O 	c #545400",
	"P 	c #C8C800",
	"Q 	c #B3B300",
	"R 	c #202008",
	"S 	c #474746",
	"T 	c #E3E4E1",
	"U 	c #F4F5F2",
	"V 	c #040404",
	"W 	c #E6E7E5",
	"X 	c #2D2E2D",
	"Y 	c #2E2E00",
	"Z 	c #303000",
	"` 	c #292900",
	" .	c #1D1D1D",
	"..	c #EBECEA",
	"+.	c #9A9A98",
	"@.	c #E9EAE7",
	"#.	c #646400",
	"$.	c #FBFB00",
	"%.	c #A1A100",
	"&.	c #888800",
	"*.	c #F2F200",
	"=.	c #515100",
	"-.	c #494948",
	";.	c #DFE0DD",
	">.	c #252625",
	",.	c #818180",
	"'.	c #4E4E00",
	").	c #FCFC00",
	"!.	c #A5A500",
	"~.	c #060600",
	"{.	c #838300",
	"].	c #E2E200",
	"^.	c #BEBE00",
	"/.	c #0B0B0B",
	"(.	c #272727",
	"_.	c #EBEB00",
	":.	c #6A6A00",
	"<.	c #020200",
	"[.	c #4B4B00",
	"}.	c #F3F300",
	"|.	c #282800",
	"1.	c #0F0F0F",
	"2.	c #FEFE00",
	"3.	c #686800",
	"4.	c #4A4A00",
	"5.	c #F4F400",
	"6.	c #A8A800",
	"7.	c #989800",
	"8.	c #787800",
	"9.	c #030302",
	"0.	c #646563",
	"a.	c #969795",
	"b.	c #4C4D4C",
	"c.	c #8C8C8B",
	"d.	c #E5E500",
	"e.	c #F1F100",
	"f.	c #292902",
	"g.	c #2B2B2B",
	"h.	c #F7F8F5",
	"i.	c #484948",
	"j.	c #8D8D8C",
	"k.	c #0E0E0D",
	"l.	c #6B6C6B",
	"m.	c #030303",
	"n.	c #FBFDF9",
	"o.	c #BCBDBB",
	"p.	c #C1C1BF",
	". . . . + @ @ @ @ @ @ @ @ @ @ # . . . . . . . . . . . . . ",
	". . . . $ % & * % = - ; % > , ' . . ) ! ~ . . . . . . . . ",
	". . . . . . > { ] ^ / ( _ : < . . . [ } | . . . . . . . . ",
	". . . . . . > { 1 2 3 4 5 : < . . . [ } | . . . . . . . . ",
	". . . . . . > { . 6 7 8 9 0 a b b b @ } * c . . . . . . . ",
	". . . . . . > d e f g h i j k k k k k k k l m . . . . . . ",
	". . . . . . > n o p q r s t u u u u u u u v w . . . . . . ",
	". . x y y y z A B C C C D u u u u u u u u v > . . . 1 L . ",
	". . m E F j j G u u u u u u u u u u u u u v > . . . 1 V . ",
	". . . H I u u u u u u u u u u u u u u u J K : . . . 1 V . ",
	". . M N O P P P P P P P P P P P P P P Q R S T . . . U V . ",
	". W X Y Z Z Z Z Z Z Z Z Z Z Z Z Z Z Z `  .... . . . +.V . ",
	"@.X #.$.%.&.$.u u u u u u u u u u u u *.=.-.. . . ;.>.V . ",
	",.'.).!.~.} {.$.u ].g g g g g g g g g g ^./.m x ) (.} V . ",
	"H Y _.:.<.} [.}.u |.} } } } } } } } } } } } } } } } } V . ",
	". 1.I 2.3.4.5.u u 6.7.7.7.7.7.7.7.7.7.7.8.9.0.a.a.b.} V . ",
	". c.} d.e.e.e.e.e.e.e.e.e.e.e.e.e.e.e.g f.g.. . . h.i.V 1 ",
	". . j.k.! ! ! ! ! ! ! ! ! ! ! ! ! ! ! ! l.. . . . . U m.,.",
	". . . n.. . . . . . . . . . . . . . . . . . . . . . . o.p."
};

static const char *fireman_xpm[] =
{
	"19 24 141 2",
	". 	c None",
	"+ 	c #D1D1D1",
	"@ 	c #7F7F15",
	"# 	c #808000",
	"$ 	c #595937",
	"% 	c #7C7C29",
	"& 	c #FFFF00",
	"* 	c #C8C800",
	"= 	c #B2B2B2",
	"- 	c #D5C7AB",
	"; 	c #806000",
	"> 	c #E3E300",
	", 	c #7C7C30",
	"' 	c #FEE1AB",
	") 	c #FFA600",
	"! 	c #9B6500",
	"~ 	c #807500",
	"{ 	c #DDDD00",
	"] 	c #CECECD",
	"^ 	c #7F7F11",
	"/ 	c #EAB641",
	"( 	c #DFA106",
	"_ 	c #E2AC24",
	": 	c #605422",
	"< 	c #565630",
	"[ 	c #979796",
	"} 	c #A2A200",
	"| 	c #948600",
	"1 	c #E79600",
	"2 	c #FFC863",
	"3 	c #FEF3DE",
	"4 	c #838481",
	"5 	c #868784",
	"6 	c #C7C7C6",
	"7 	c #B3B30A",
	"8 	c #989800",
	"9 	c #7F7F21",
	"0 	c #DCDDDA",
	"a 	c #B4B4B2",
	"b 	c #41423E",
	"c 	c #81827F",
	"d 	c #86864F",
	"e 	c #F5F500",
	"f 	c #9E9E1F",
	"g 	c #DCDCDB",
	"h 	c #F2F2F1",
	"i 	c #656663",
	"j 	c #7C7C79",
	"k 	c #898989",
	"l 	c #F1F100",
	"m 	c #BEBE00",
	"n 	c #7C7C37",
	"o 	c #F1F1F0",
	"p 	c #656662",
	"q 	c #777774",
	"r 	c #FDFDFB",
	"s 	c #7C7C07",
	"t 	c #ACAC00",
	"u 	c #A8A8A8",
	"v 	c #C1C15C",
	"w 	c #E0E000",
	"x 	c #4B4C48",
	"y 	c #D1D1D0",
	"z 	c #6A6B67",
	"A 	c #A2A3A0",
	"B 	c #828282",
	"C 	c #F8F800",
	"D 	c #979726",
	"E 	c #E3E3E2",
	"F 	c #7C7C3E",
	"G 	c #96966F",
	"H 	c #AFAFAD",
	"I 	c #4E4F4B",
	"J 	c #DBDBDA",
	"K 	c #FEFEFE",
	"L 	c #C8C9C7",
	"M 	c #414100",
	"N 	c #05210C",
	"O 	c #757500",
	"P 	c #9B9B22",
	"Q 	c #7F7F60",
	"R 	c #DDB200",
	"S 	c #7F622A",
	"T 	c #BCBDBB",
	"U 	c #FFFFFE",
	"V 	c #137C2E",
	"W 	c #147F2F",
	"X 	c #355F12",
	"Y 	c #A9A900",
	"Z 	c #AC8210",
	"` 	c #FFB429",
	" .	c #0E5B22",
	"..	c #0D521E",
	"+.	c #ACACAB",
	"@.	c #7F7F7E",
	"#.	c #A1A1A1",
	"$.	c #B7B7B5",
	"%.	c #5B5C58",
	"&.	c #C6A76B",
	"*.	c #FED993",
	"=.	c #FDFDFC",
	"-.	c #13782C",
	";.	c #106927",
	">.	c #969E98",
	",.	c #CBCBC9",
	"'.	c #9B9B99",
	").	c #C4C4C3",
	"!.	c #155E27",
	"~.	c #325E3D",
	"{.	c #E7E7E6",
	"].	c #E5E5E4",
	"^.	c #B7B7B6",
	"/.	c #909090",
	"(.	c #12752B",
	"_.	c #256835",
	":.	c #1A7731",
	"<.	c #0E5620",
	"[.	c #56675A",
	"}.	c #4F4F4F",
	"|.	c #498B59",
	"1.	c #27833E",
	"2.	c #2C3E31",
	"3.	c #E6E6E5",
	"4.	c #164522",
	"5.	c #6DAF7D",
	"6.	c #FFB222",
	"7.	c #FED27E",
	"8.	c #103E1B",
	"9.	c #E5F0E7",
	"0.	c #D2AB63",
	"a.	c #805300",
	"b.	c #DFBE7E",
	"c.	c #484848",
	"d.	c #439959",
	"e.	c #F1F7F2",
	"f.	c #FFA807",
	"g.	c #FFB52C",
	"h.	c #FDF6E7",
	"i.	c #FDD281",
	"j.	c #865A07",
	"k.	c #AC802C",
	". . . . . + @ # # # $ . . . . . . . . ",
	". . . . . . % & & & * = . . . . . . . ",
	". . . . . . - ; > & & , . . . . . . . ",
	". . . . . . ' ) ! ~ { , . . . . . . . ",
	". . . . ] ^ / ) ( _ : < . . . . . . . ",
	". . . [ } & | 1 2 3 . . . 4 5 . . . . ",
	". . 6 7 & & & 8 9 0 . . . a b c . . . ",
	". . d e & & & & & f g . . h i b j . . ",
	". k l & & & & m & & n . . o p b b q r ",
	". s & & & & t u v w * = . 4 x y z b A ",
	"B C & & & & & D E F > G H I J K . L A ",
	"B M N O # t & & P Q R ) S T U . . . . ",
	"B V W W W X Y & { # Z ) ` . K . . . . ",
	"B  .W W W ..+.@.#.$.%.&.*.=.K . . . . ",
	". k -.W W ;.>.. ,.b '.U K K . . . . . ",
	". ).!.W W W ~.{.].^.U . . . . . . . . ",
	". . /.(._.:.<.] . . . . . . . . . . . ",
	". . /.(._.:.[.. . . . . . . . . . . . ",
	". . }.(.|.1.2.3.. . . . . . . . . . . ",
	". . 4.W 5.6.) ) ) 7.. . . . . . . . . ",
	". ).8.W 9.0.a.a.a.b.. . . . . . . . . ",
	". c.-.d.e.. . . . . . . . . . . . . . ",
	". f.) ) ) g.h.. . . . . . . . . . . . ",
	"=.i.j.a.a.k.h.. . . . . . . . . . . . "
};

static const char *mtnfire_xpm[] =
{
	"27 23 180 2",
	". 	c None",
	"@ 	c #FEFEFE",
	"# 	c #EEEEED",
	"$ 	c #BABBB8",
	"% 	c #B6B8B4",
	"& 	c #ECECEB",
	"* 	c #F1F1F0",
	"= 	c #E8E8E7",
	"- 	c #F7F7F6",
	"; 	c #C2C3C1",
	"> 	c #FCFCFC",
	", 	c #FAFAF9",
	"' 	c #C1C2C0",
	") 	c #F7F7F7",
	"! 	c #ECECEC",
	"~ 	c #A9AAA7",
	"{ 	c #CDCECB",
	"] 	c #B7B8B5",
	"^ 	c #B6B7B4",
	"/ 	c #F6F6F5",
	"( 	c #BBBCB9",
	"_ 	c #C7C8C6",
	": 	c #C6C7C4",
	"< 	c #CFD0CE",
	"[ 	c #C8C9C8",
	"} 	c #B7B8B6",
	"| 	c #B0B1AE",
	"1 	c #DEDFDD",
	"2 	c #FCFDFC",
	"3 	c #C6C6C4",
	"4 	c #CBCCCA",
	"5 	c #E5E5E4",
	"6 	c #F2F3F1",
	"7 	c #A4A5A2",
	"8 	c #AEAFAC",
	"9 	c #D2D2D0",
	"0 	c #E5E6E4",
	"a 	c #E4E4E3",
	"b 	c #AFB0AD",
	"c 	c #C8C8C7",
	"d 	c #C5C6C3",
	"e 	c #F2F2F1",
	"f 	c #F8F8F7",
	"g 	c #FBFBFA",
	"h 	c #E9EAE7",
	"i 	c #FEFEFD",
	"j 	c #BDBEBC",
	"k 	c #F8F8F6",
	"l 	c #FDFDFD",
	"m 	c #ADAEAA",
	"n 	c #B8B9B7",
	"o 	c #F3F3F3",
	"p 	c #FDFDFC",
	"q 	c #D2D2D1",
	"r 	c #E2E3E1",
	"s 	c #F6F6F6",
	"t 	c #E3E3E2",
	"u 	c #C8C9C7",
	"v 	c #D9D9D8",
	"w 	c #959793",
	"x 	c #F0F0EF",
	"y 	c #A2A3A0",
	"z 	c #C0C1BE",
	"A 	c #AFB0AE",
	"B 	c #C9C9C7",
	"C 	c #FBFBFB",
	"D 	c #AEAFAD",
	"E 	c #F5F5F5",
	"F 	c #DFE0DE",
	"G 	c #F4F5F3",
	"H 	c #ACADAA",
	"I 	c #FAFAFA",
	"J 	c #E0E1DF",
	"K 	c #C9CAC8",
	"L 	c #8E8F8C",
	"M 	c #F5F6F5",
	"N 	c #E5E5E3",
	"O 	c #ADAEAC",
	"P 	c #CDCECC",
	"Q 	c #B4B5B3",
	"R 	c #F6F7F6",
	"S 	c #F3F3F1",
	"T 	c #8F908C",
	"U 	c #F0F0F0",
	"V 	c #C3C4C2",
	"W 	c #F9F9F8",
	"X 	c #ABADA9",
	"Y 	c #B2B4B0",
	"Z 	c #DFDFDE",
	"` 	c #FFFDFA",
	" .	c #E8D662",
	"..	c #F8E7AB",
	"..	c #E7E7CD",
	"@.	c #90928E",
	"#.	c #EEF5EB",
	"$.	c #F8F7F2",
	"%.	c #FEC099",
	"&.	c #FFDB2F",
	"*.	c #F1CF1C",
	"=.	c #FCCE29",
	"-.	c #D4C138",
	";.	c #DCDCDB",
	">.	c #BDE0AE",
	",.	c #D6EBCC",
	"'.	c #C4D9BA",
	").	c #48A61C",
	"!.	c #819436",
	"~.	c #CD3408",
	"{.	c #FF6509",
	"].	c #FFB00A",
	"^.	c #FFCB0E",
	"/.	c #F4DF7B",
	"(.	c #CBE1C1",
	"_.	c #7FC160",
	":.	c #3AA00A",
	"<.	c #51AB26",
	"[.	c #C2E1B2",
	"}.	c #E4F2DE",
	"|.	c #D1E9C6",
	"1.	c #56AE2D",
	"2.	c #3BA10C",
	"3.	c #39A009",
	"4.	c #3A9F09",
	"5.	c #945609",
	"6.	c #FA3309",
	"7.	c #F8A269",
	"8.	c #BFE0A9",
	"9.	c #3CA10C",
	"0.	c #A1D28B",
	"a.	c #F7F9F5",
	"b.	c #7BBD5C",
	"c.	c #3BA10B",
	"d.	c #5A8509",
	"e.	c #569818",
	"f.	c #5DB136",
	"g.	c #82C363",
	"h.	c #62B43C",
	"i.	c #FAFCF9",
	"j.	c #6DB84A",
	"k.	c #47A71B",
	"l.	c #A0D189",
	"m.	c #CAE5BD",
	"n.	c #5CB134",
	"o.	c #3FA310",
	"p.	c #4EAA23",
	"q.	c #A3D38D",
	"r.	c #E5F2DE",
	"s.	c #CFE8C4",
	"t.	c #60B139",
	"u.	c #3CA10D",
	"v.	c #7BC05B",
	"w.	c #E8F4E2",
	"x.	c #E0F0D8",
	"y.	c #D9EDD0",
	"z.	c #F2F8EF",
	"A.	c #A3D28D",
	"B.	c #74BD53",
	"C.	c #C9E5BC",
	"D.	c #BEDFAE",
	"E.	c #3DA20E",
	"F.	c #5DB135",
	"G.	c #F9FCF7",
	"H.	c #EFF7EC",
	"I.	c #4FAB25",
	"J.	c #5DA83A",
	"K.	c #429C18",
	"L.	c #39A00A",
	"M.	c #E1F0D9",
	"N.	c #EBF5E6",
	"O.	c #ABD797",
	"P.	c #A9D695",
	"Q.	c #AAD297",
	"R.	c #ABD796",
	"S.	c #6CB848",
	"T.	c #ACD797",
	"U.	c #C5E0B8",
	"V.	c #DCE8D6",
	"W.	c #94C77B",
	"X.	c #76BD55",
	"Y.	c #FAFDF9",
	". . . . . . @ . . . . . . . # $ % & . . . . . . . . . ",
	". . . . . . . . . . . * = - ; > , ' ) . . . . . . . . ",
	". . . . . . . . . . ! ~ { ] ^ . . / ( _ : & & < [ } , ",
	". . . . . . . . . @ | 1 . 2 3 2 . . 4 5 6 7 8 9 0 a b ",
	". . . . . . . . . c d e . . . . . . . . . f @ . g h 8 ",
	". . . . . i @ . . j k i . . . . @ i i . . . . l m n o ",
	". . . . . p l . . q r @ . . . . p p @ . s g t u v . . ",
	". . . . . p p . . > w x . . . i i i . i y z A . . . @ ",
	". . . . . l p @ . . B g p . . . . C . p D g . . . . . ",
	". . . . . . @ . . . E F G . . . i H I J K . . . . . . ",
	". . . . . . . . . . @ L ) . . M N O ^ P . . . . . . . ",
	". . . . . . . . . . . Q e . R S T U . . . . . . . . . ",
	". . @ i @ . . . . . . V g W X Y Z . . . . . . . . . . ",
	". . i p p . . . . . `  .....@.5 . . . . . . . . . . . ",
	". . p p @ . . #.$.%.&.*.=.-.;.. >.,.. . . . . . . . . ",
	". . i @ . . '.).!.~.{.].^./.(._.:.<.[.}.. . . . . . . ",
	". . . . |.1.2.3.3.4.5.6.7.8.:.3.3.3.3.9.0.. . . . . . ",
	". . a.b.c.3.3.3.3.3.3.d.e.f.g.2.3.3.3.3.h.. . . . . . ",
	". i.j.3.3.3.3.3.3.3.3.3.3.k.l.m.n.o.p.q.r.. . . . . . ",
	"s.t.3.3.u.3.3.3.3.3.3.3.3.3.3.v.w.x.y.z.@ . . . . . . ",
	"A.B.C.y.D.E.3.3.3.3.3.3.3.3.3.3.F.G.. . . . . . . . . ",
	". . i H.I.3.3.3.3.p.J.K.u.L.3.3.f.M.. . @ . . . . . . ",
	". . N.O.P.Q.R.S.T.. . U.V.W.S.X.Y.. . . . . . . . . . "
};

static const char *torchtree_xpm[] = {
"14 35 59 1",
".	c None",
"+	c #FEFEFC",
"@	c #FEFEFE",
"#	c #FCFDFA",
"$	c #FEBF7E",
"%	c #FEBF40",
"&	c #FFEFBF",
"*	c #FEBF00",
"=	c #FFBF00",
"-	c #FFAF40",
";	c #FDFEBD",
">	c #FE7F3E",
",	c #FBFCBA",
"'	c #FEDF00",
")	c #FFCF00",
"!	c #FE8000",
"~	c #FFBFBF",
"{	c #FEAF00",
"]	c #FF8080",
"^	c #FCBD3C",
"/	c #FF8F00",
"(	c #FCBDBC",
"_	c #C1DFCE",
":	c #C0DFCC",
"<	c #0A823E",
"[	c #FEFE3E",
"}	c #83C09C",
"|	c #C2B010",
"1	c #FEEF00",
"2	c #FDFEFB",
"3	c #FEBFBE",
"4	c #46A16D",
"5	c #C28010",
"6	c #FF6000",
"7	c #47A16E",
"8	c #47912E",
"9	c #84C09E",
"0	c #84A01F",
"a	c #84711F",
"b	c #FDFE7D",
"c	c #FDBE7D",
"d	c #84C09D",
"e	c #FF9F00",
"f	c #C2E0CF",
"g	c #84C01F",
"h	c #FEFF80",
"i	c #84B01F",
"j	c #81BE9A",
"k	c #BFDE8C",
"l	c #C1D010",
"m	c #439E6A",
"n	c #C0DECB",
"o	c #459F6B",
"p	c #629262",
"q	c #406425",
"r	c #B8A283",
"s	c #75460C",
"t	c #BAA286",
"u	c #B9A284",
".++++++++...@.",
".#######+@$%&.",
".#@###++.@*=-.",
".@+#@+@;>,')!.",
"..@@@.~*{*='].",
".@@..@^)=/={(.",
"@.@@._'==)=^@.",
".@++:<==)='[..",
".@@@}<|==)=1(.",
"+..2<<<=)=='3.",
"+.@4<<<5)=)6].",
"+@7}<<<8/==[~.",
"++@9<<<0a==..@",
"+@@<<<<|/)=;.+",
"+.7<<<<<|/=b.+",
"@7<<<<<80/*c..",
".9+d<<<8==e]..",
"..4<<<<<8)!...",
".f47<<<<<gh...",
"._+7<<<80ih.+.",
"._7<<<<0/*3.@.",
".j<<<<<<<k.@++",
"+4@<<<<<<7.@@@",
".:<<<<<<l<:@..",
"+<7<<<<<mnn@..",
"_<.<<<<79<}@.+",
"._4<<<<<.nd2.+",
".o<7pqp7<<+#@+",
"_<7.rstf9<:#@@",
".@..tst@@.2#..",
"@@@.ust..@++@.",
"@..+tst.@#@@+.",
"....tst.......",
".@..ust.@###.@",
".@+...@.+@+#@@"
};
